<svg xmlns="http://www.w3.org/2000/svg"  viewBox="0 0 48 48" width="48px" height="48px"><path fill="#16b7b8" d="M38.109,40.49c-0.761-0.293-1.602-0.256-2.417-0.275c-1.646-0.038-4.028-0.695-5.442-2.028 l-10.959-0.311c-0.098,0.422-0.258,0.848-0.574,1.144c-0.399,0.374-0.973,0.477-1.513,0.563c-2.416,0.383-4.894,0.749-7.045,1.913 c-0.157,0.085-0.32,0.182-0.406,0.339c-0.194,0.352,0.215,1.63,0.498,1.915c1.004,1.01,1.449,1.321,2.964,2.031 c1.799,0.844,6.172,1.157,7.38,1.306c3.138,0.388,7.586,0.25,10.715-0.206s6.957-1.549,8.111-4.492 C39.717,41.63,38.87,40.783,38.109,40.49z"/><path fill="#fcbf95" d="M35.625,18.679c-0.304-0.333-0.691-0.551-1.101-0.692c0.044-0.482,0.093-1.006,0.149-1.621 L32.427,8.75l-17.271,2.531l-1.765,7.33c0.071,0.441,0.141,0.823,0.212,1.176c-0.663,0.593-1.338,1.715-1.078,3.795 c0.426,3.404,0.651,3.299,2.544,3.705c0.209,0.864,0.447,1.72,0.766,2.55c0.754,1.961,1.932,3.808,3.591,5.066 c0.18,1.199,0.173,2.687-0.544,3.932c1.153,1.094,6.18,3.456,11.472-0.898c-0.619-1.337-1.002-1.997-1.14-2.994 c1.838-1.374,3.058-3.471,3.757-5.673c0.294-0.927,0.492-1.877,0.654-2.835c0.921-0.078,2.284-0.402,2.627-1.618 C36.781,22.938,36.844,20.014,35.625,18.679z"/><path fill="#c56528" d="M36.303,6.335c-1.616-1.614-3.896-1.976-6.127-1.757l-0.019,0.036 c-0.038-0.067-0.071-0.134-0.11-0.202c-0.559-0.955-1.636-1.829-2.658-2.255c-1.022-0.426-2.616-0.506-3.722-0.554 c-2.729-0.118-5.318-0.295-7.381,0.941c-0.325,0.194-0.626,0.483-0.704,0.854c-0.078,0.37,0.21,0.824,0.585,0.772 c-2.08,1.338-3.454,2.42-5.229,4.142c-1.008,0.978-2.296,2.736-2.254,4.139c0.405-0.04,0.811-0.079,1.216-0.119 c-0.226,2.087-0.328,4.345,0.208,6.375c0.536,2.03,2.35,3.955,4.248,4.851l-0.965-4.974c0.383-1.968,1.319-3.16,3.109-4.064 c-0.138,0.547-0.085,0.594,0.086,1.132s0.777,0.978,1.296,0.759c0.208-0.088,0.366-0.261,0.514-0.432 c1.512-1.739,2.824-3.337,4.873-4.393c-0.149,1.255-0.241,2.49,0.536,3.488c0.065,0.084,0.142,0.167,0.245,0.195 c0.272,0.075,0.465-0.258,0.553-0.526c0.477-1.465,1.396-2.816,2.898-3.159c-0.012,0.889,0.212,1.26,0.813,1.916 c0.611-0.735,1.177-1.449,1.648-2.215c0.25,0.577,1.141,2.288,3.121,2.708c2.387,0.507,1.366,4.827,1.366,4.827l-0.301,4.499 c1.26-0.687,2.471-3.041,2.853-4.424c0.382-1.383,0.271-5.037-0.457-6.274c0.322,0.5,1.092,0.754,1.414,1.253 c0.516-0.068,0.662-0.741,0.644-1.261C38.518,10.331,37.919,7.949,36.303,6.335z"/><path fill="#d6e5e5" d="M16.688,23.559c0,0,1.733,5.066,0.148,8.691c1.643,1.678,3.752,4.301,7.24,4.104 c3.488-0.197,5.144-0.947,7.269-3.447c-0.712-2.188-1.438-4.406,0-8.906C28.601,24.995,23.531,27.119,16.688,23.559z"/><path fill="#010101" d="M24.338,37.032c-1.648,0-3.295-0.448-4.688-1.351c-2.313-1.499-3.605-3.908-4.281-5.665 c-0.852-2.214-1.227-4.562-1.59-6.832c-0.145-0.904-0.29-1.561-0.435-2.217c-0.146-0.662-0.297-1.346-0.446-2.277 c-0.044-0.272,0.142-0.529,0.415-0.573c0.273-0.045,0.529,0.142,0.573,0.415c0.145,0.905,0.291,1.563,0.436,2.22 c0.146,0.661,0.297,1.345,0.446,2.274c0.355,2.22,0.722,4.515,1.537,6.631c0.623,1.618,1.803,3.832,3.892,5.185 c2.549,1.653,6.065,1.586,8.55-0.165c2.113-1.486,3.205-3.843,3.75-5.559c0.709-2.234,0.93-4.633,1.143-6.952l0.538-5.846 c0.026-0.274,0.27-0.463,0.544-0.452c0.275,0.025,0.477,0.269,0.452,0.544l-0.538,5.846c-0.218,2.372-0.444,4.826-1.186,7.163 c-0.591,1.861-1.786,4.427-4.127,6.074C27.867,36.518,26.102,37.032,24.338,37.032z"/><path fill="#010101" d="M24.845,47.813c-1.568,0-3.066-0.075-4.313-0.229c-0.198-0.024-0.483-0.054-0.829-0.089 c-1.791-0.183-5.125-0.521-6.702-1.261c-1.554-0.729-2.047-1.067-3.106-2.132c-0.386-0.389-0.913-1.904-0.582-2.508 c0.151-0.273,0.392-0.421,0.605-0.537c2.161-1.17,4.611-1.557,6.98-1.932l0.226-0.036c0.518-0.082,0.969-0.172,1.25-0.435 c0.193-0.181,0.33-0.464,0.429-0.892c0.267-1.142,0.33-2.008,0.187-2.573c-0.067-0.268,0.095-0.539,0.362-0.606 c0.269-0.068,0.541,0.095,0.607,0.362c0.185,0.731,0.125,1.728-0.183,3.044c-0.146,0.629-0.375,1.072-0.719,1.396 c-0.527,0.493-1.249,0.608-1.776,0.692l-0.227,0.035c-2.287,0.361-4.65,0.735-6.659,1.822c-0.122,0.067-0.192,0.114-0.207,0.142 c-0.042,0.211,0.251,1.138,0.417,1.322c0.973,0.979,1.369,1.249,2.82,1.929c1.422,0.668,4.646,0.996,6.378,1.173 c0.354,0.035,0.647,0.065,0.851,0.091c2.923,0.36,7.274,0.275,10.581-0.206c4.278-0.623,6.875-2.029,7.717-4.18 c0.016-0.041,0.064-0.164-0.03-0.38c-0.149-0.34-0.567-0.705-0.994-0.869c-0.567-0.219-1.209-0.227-1.889-0.235l-0.36-0.006 c-1.815-0.043-3.435-0.534-4.817-1.459c-1.435-0.96-2.12-2.634-1.88-4.59c0.033-0.273,0.28-0.479,0.557-0.436 c0.274,0.033,0.469,0.283,0.436,0.557c-0.192,1.569,0.334,2.895,1.445,3.639c1.221,0.816,2.662,1.251,4.283,1.289l0.35,0.006 c0.738,0.01,1.5,0.02,2.235,0.302c0.683,0.264,1.292,0.813,1.55,1.4c0.172,0.39,0.188,0.786,0.046,1.147 c-0.983,2.509-3.844,4.125-8.503,4.805C29.401,47.664,27.053,47.813,24.845,47.813z"/><path fill="#010101" d="M23.539,41c-0.273,0-0.551-0.007-0.836-0.019c-0.771-0.034-3.12-0.136-4.133-1.947 c-0.135-0.241-0.048-0.546,0.192-0.681c0.241-0.134,0.545-0.049,0.681,0.192c0.505,0.903,1.555,1.36,3.303,1.436 c3.098,0.145,5.347-0.505,6.884-1.961c0.201-0.189,0.517-0.18,0.707,0.02c0.189,0.2,0.181,0.517-0.02,0.707 C28.72,40.26,26.497,41,23.539,41z"/><path fill="#010101" d="M14.355,24.06c-0.071,0-0.144-0.016-0.213-0.048c-2.154-1.017-3.97-3.097-4.519-5.176 C9.1,16.853,9.173,14.68,9.34,12.891h0l-0.607,0.06c-0.14,0.008-0.275-0.031-0.379-0.122c-0.104-0.092-0.166-0.223-0.17-0.361 c-0.046-1.564,1.267-3.409,2.406-4.514c1.6-1.551,2.881-2.596,4.665-3.783c-0.163-0.26-0.225-0.579-0.162-0.874 c0.125-0.587,0.578-0.966,0.937-1.18c2.1-1.257,4.625-1.144,7.295-1.027l0.364,0.016c1.335,0.059,2.846,0.156,3.893,0.592 c1.169,0.487,2.307,1.454,2.898,2.463c1.072,1.834,1.353,3.41,0.91,5.111c-0.461,1.771-1.449,3.055-2.692,4.549 c-0.092,0.111-0.228,0.177-0.373,0.181c-0.146-0.013-0.283-0.056-0.381-0.162c-0.497-0.544-0.786-0.96-0.895-1.568 c-1.138,0.554-1.715,1.841-1.972,2.628c-0.213,0.654-0.668,0.986-1.161,0.854c-0.278-0.077-0.444-0.29-0.506-0.37 c-0.669-0.859-0.785-1.843-0.729-2.876c-1.403,0.913-2.45,2.121-3.633,3.485l-0.275,0.317c-0.158,0.181-0.374,0.428-0.697,0.564 c-0.331,0.141-0.707,0.129-1.058-0.035c-0.42-0.193-0.768-0.59-0.909-1.033l-0.049-0.152c-0.031-0.095-0.057-0.179-0.078-0.256 c-1.181,0.781-1.808,1.78-2.1,3.285c-0.032,0.165-0.146,0.304-0.302,0.367c-0.155,0.063-0.333,0.044-0.472-0.051 c-1.464-1.008-1.897-2.508-1.08-3.732c0.153-0.23,0.463-0.292,0.694-0.139c0.229,0.153,0.292,0.464,0.138,0.693 c-0.445,0.667-0.222,1.332,0.241,1.854c0.5-1.643,1.483-2.745,3.173-3.599c0.174-0.088,0.384-0.067,0.538,0.056 c0.153,0.122,0.22,0.323,0.172,0.513c-0.088,0.349-0.088,0.349,0.026,0.699l0.051,0.159c0.057,0.179,0.208,0.351,0.375,0.428 c0.095,0.044,0.18,0.052,0.25,0.021c0.11-0.047,0.233-0.187,0.332-0.3l0.273-0.314c1.408-1.625,2.738-3.159,4.747-4.194 c0.165-0.084,0.362-0.071,0.514,0.033c0.152,0.105,0.233,0.286,0.211,0.47c-0.137,1.157-0.205,2.185,0.342,2.995 c0.006-0.017,0.013-0.033,0.019-0.052c0.624-1.914,1.783-3.153,3.263-3.491c0.151-0.033,0.307,0.002,0.426,0.099 s0.188,0.242,0.186,0.396c-0.007,0.517,0.063,0.79,0.308,1.128c0.981-1.207,1.75-2.305,2.113-3.7 c0.371-1.425,0.123-2.768-0.806-4.354c-0.48-0.82-1.453-1.643-2.419-2.045c-0.97-0.404-2.585-0.475-3.551-0.516L23.28,2.088 c-2.518-0.11-4.895-0.217-6.738,0.886c-0.262,0.157-0.434,0.35-0.472,0.528c-0.013,0.063,0.033,0.159,0.067,0.18 c0.234-0.03,0.437,0.098,0.518,0.318c0.082,0.22-0.021,0.464-0.219,0.592c-2.071,1.332-3.419,2.399-5.151,4.08 c-0.882,0.855-1.811,2.146-2.047,3.224l0.004-0.001l0.607-0.06c0.152-0.005,0.299,0.039,0.404,0.146 c0.106,0.106,0.158,0.256,0.142,0.405c-0.195,1.804-0.349,4.138,0.194,6.193c0.471,1.782,2.106,3.644,3.979,4.527 c0.25,0.118,0.356,0.416,0.239,0.666C14.723,23.954,14.543,24.06,14.355,24.06z"/><path fill="#010101" d="M34.146,23.818c-0.177,0-0.349-0.095-0.439-0.261c-0.132-0.242-0.043-0.546,0.2-0.679 c1.074-0.585,2.244-2.793,2.61-4.117c0.372-1.345,0.205-4.85-0.406-5.887c-0.138-0.234-0.063-0.537,0.168-0.68 c0.233-0.141,0.536-0.074,0.683,0.155c0.107,0.166,0.332,0.321,0.571,0.485c0.16,0.111,0.332,0.229,0.49,0.369 c0.051-0.138,0.084-0.344,0.077-0.574c-0.063-1.794-0.488-4.281-2.15-5.942c-1.316-1.313-3.244-1.854-5.725-1.612 c-0.28,0.019-0.519-0.175-0.546-0.449c-0.027-0.274,0.174-0.52,0.449-0.547c2.755-0.265,5.013,0.388,6.529,1.901 c1.893,1.891,2.374,4.641,2.443,6.614c0.035,0.986-0.388,1.684-1.077,1.775c-0.195,0.023-0.381-0.063-0.486-0.226 c-0.005-0.007-0.01-0.015-0.015-0.021c0.289,1.687,0.25,3.861-0.039,4.903c-0.399,1.445-1.659,3.947-3.096,4.73 C34.309,23.799,34.227,23.818,34.146,23.818z"/><path fill="#010101" d="M34.672,17.169c-0.019,0-0.039-0.001-0.058-0.003c-0.274-0.032-0.471-0.28-0.439-0.555 c0.002-0.018,0.081-1.823-1.495-2.222c-0.998-0.252-1.804-0.769-2.271-1.453c-0.26-0.381-0.397-0.795-0.53-1.196 c-0.053-0.16-0.106-0.321-0.168-0.478c-0.102-0.257,0.024-0.547,0.281-0.648c0.256-0.104,0.547,0.024,0.648,0.281 c0.069,0.174,0.128,0.353,0.188,0.53c0.116,0.351,0.226,0.682,0.407,0.947c0.329,0.483,0.929,0.854,1.689,1.048 c2.12,0.534,2.309,2.743,2.244,3.306C35.139,16.981,34.923,17.169,34.672,17.169z"/><path fill="#010101" d="M16.989,19.5c-0.038,0-0.076-0.004-0.114-0.013c-0.212-0.05-0.41-0.275-0.427-0.492 c-0.024-0.308,0.207-0.571,0.436-0.664c1.142-0.456,2.445-0.446,3.578,0.025c0.255,0.106,0.375,0.399,0.269,0.654 c-0.107,0.256-0.401,0.371-0.654,0.27c-0.831-0.348-1.776-0.379-2.625-0.093C17.375,19.377,17.191,19.5,16.989,19.5z"/><path fill="#010101" d="M18.775,19.975c-0.165,0-0.338-0.035-0.52-0.104c-0.309-0.12-0.502-0.309-0.579-0.562 c-0.026-0.087-0.034-0.178-0.024-0.266c-0.002-0.184,0.058-0.364,0.173-0.508c0.197-0.244,0.514-0.363,0.9-0.356 c0.523,0.019,0.932,0.316,1.014,0.743c0.08,0.414-0.179,0.84-0.601,0.99C19.024,19.954,18.902,19.975,18.775,19.975z"/><path fill="#010101" d="M30.874,19.63c-0.106,0-0.213-0.033-0.304-0.104c-0.761-0.583-1.875-0.677-2.733-0.256 c-0.089,0.219-0.344,0.357-0.577,0.331c-0.248-0.039-0.477-0.305-0.472-0.556c0.003-0.143,0.06-0.347,0.309-0.506 c1.245-0.776,2.921-0.696,4.082,0.193c0.219,0.168,0.261,0.481,0.093,0.7C31.173,19.563,31.024,19.63,30.874,19.63z"/><path fill="#010101" d="M29.076,19.985c-0.217,0-0.441-0.069-0.65-0.204c-0.335-0.217-0.388-0.492-0.39-0.637 c-0.002-0.186,0.1-0.357,0.264-0.445c0.075-0.04,0.189-0.061,0.299-0.061h0c0.053-0.069,0.118-0.128,0.194-0.175 c0.21-0.13,0.477-0.146,0.712-0.044c0.24,0.104,0.412,0.312,0.461,0.557c0.085,0.421-0.201,0.858-0.637,0.976 C29.247,19.975,29.162,19.985,29.076,19.985z"/><path fill="#010101" d="M24.283,26.001c-3.86,0-7.993-1.14-10.636-4.034c-0.187-0.204-0.172-0.52,0.032-0.706 c0.203-0.187,0.519-0.173,0.706,0.032c3.485,3.815,9.844,4.319,14.278,3.171c0.951-0.246,1.641-0.55,2.171-0.955 c0.495-0.379,0.899-0.891,1.29-1.384l1.739-2.201c0.171-0.215,0.486-0.253,0.702-0.082c0.217,0.172,0.253,0.486,0.082,0.703 l-1.738,2.199c-0.409,0.518-0.872,1.104-1.466,1.559c-0.641,0.49-1.444,0.849-2.528,1.13C27.509,25.796,25.92,26.001,24.283,26.001 z"/><path fill="#010101" d="M17.146,32.583c-0.039,0-0.078-0.005-0.117-0.014c-0.269-0.064-0.434-0.335-0.37-0.604 c0.641-2.663,0.53-5.631-0.295-7.938c-0.093-0.261,0.042-0.547,0.302-0.64c0.258-0.093,0.545,0.041,0.639,0.302 c0.889,2.483,1.011,5.664,0.327,8.51C17.577,32.429,17.372,32.583,17.146,32.583z"/><path fill="#010101" d="M31.066,33.202c-0.214,0-0.412-0.139-0.478-0.354c-0.944-3.085-0.718-6.538,0.62-9.474 c0.115-0.252,0.411-0.362,0.663-0.248c0.251,0.114,0.362,0.411,0.248,0.662c-1.238,2.718-1.448,5.912-0.574,8.767 c0.081,0.265-0.068,0.544-0.332,0.625C31.164,33.195,31.115,33.202,31.066,33.202z"/><path fill="#010101" d="M23.894,29.959c-1.489,0-2.993-0.275-4.446-0.828c-0.258-0.099-0.388-0.388-0.29-0.646 c0.098-0.257,0.386-0.384,0.645-0.29c2.806,1.068,5.812,1.015,8.465-0.153c0.254-0.108,0.548,0.004,0.659,0.257 c0.111,0.253-0.003,0.548-0.256,0.659C27.154,29.625,25.533,29.959,23.894,29.959z"/><path fill="#010101" d="M23.947,32.984c-1.446,0-2.893-0.255-4.257-0.763c-0.259-0.097-0.391-0.385-0.294-0.644 c0.097-0.259,0.386-0.39,0.643-0.294c2.293,0.854,4.844,0.93,7.178,0.213c0.079-0.024,0.165-0.045,0.251-0.065 c0.11-0.026,0.294-0.07,0.338-0.11c0.116-0.25,0.41-0.35,0.659-0.235c0.25,0.116,0.354,0.421,0.238,0.671 c-0.213,0.461-0.69,0.573-1.005,0.647c-0.065,0.016-0.129,0.03-0.188,0.049C26.355,32.808,25.151,32.984,23.947,32.984z"/><path fill="#010101" d="M23.528,25.464c-0.032,0-0.065-0.003-0.098-0.01c-0.271-0.054-0.447-0.316-0.393-0.587 c0.335-1.693,0.397-3.42,0.186-5.132c-0.034-0.274,0.161-0.523,0.435-0.558c0.275-0.035,0.523,0.16,0.558,0.435 c0.225,1.818,0.159,3.651-0.197,5.448C23.971,25.299,23.762,25.464,23.528,25.464z"/><path fill="#010101" d="M33.89,27.078c-0.203,0-0.393-0.124-0.468-0.324c-0.097-0.259,0.034-0.547,0.293-0.644 c1.289-0.483,1.913-0.86,2.201-1.815c0.25-0.829,0.188-1.902,0.129-2.939c-0.022-0.388-0.044-0.764-0.049-1.114 c-0.003-0.276,0.217-0.503,0.494-0.507c0.266,0.032,0.503,0.218,0.506,0.493c0.004,0.337,0.025,0.698,0.047,1.07 c0.062,1.072,0.132,2.287-0.17,3.286c-0.444,1.471-1.534,1.985-2.808,2.462C34.007,27.068,33.948,27.078,33.89,27.078z"/><path fill="#010101" d="M15.013,27.951c-0.046,0-0.094-0.007-0.141-0.021c-0.998-0.292-1.984-0.739-2.442-2.02 c-0.349-0.976-0.372-1.893-0.397-2.864l-0.008-0.304c-0.008-0.276,0.209-0.507,0.485-0.515c0.274,0.006,0.506,0.21,0.515,0.485 l0.008,0.308c0.024,0.928,0.044,1.729,0.339,2.554c0.255,0.712,0.737,1.09,1.782,1.396c0.265,0.077,0.417,0.355,0.339,0.62 C15.429,27.81,15.229,27.951,15.013,27.951z"/></svg>