<svg xmlns="http://www.w3.org/2000/svg"  viewBox="0 0 100 100" width="100px" height="100px"><path fill="#cdcbbd" d="M32,69v8.621c0,3.253,1.969,6.182,4.982,7.409l6.056,2.467c0.789,0.322,1.625,0.49,2.462,0.503	c0.842,0.013,1.687-0.133,2.489-0.434L49.5,87l1.511,0.566c0.803,0.301,1.647,0.446,2.489,0.434	c0.838-0.013,1.673-0.182,2.462-0.503l6.056-2.467C65.031,83.802,67,80.873,67,77.621V69H32z"/><path fill="#e0decf" d="M37,73.721c0,0.609,0.276,1.179,0.749,1.562C39.021,76.315,42.214,78,49.5,78	c7.573,0,10.643-1.659,11.821-2.692C61.755,74.927,62,74.38,62,73.803V71c0-1.105,0.895-2,2-2h3c3.866,0,7-3.134,7-7v-0.937	c0-0.944,0.27-1.871,0.776-2.668C78.685,52.234,81,48.653,81,42c0-16.569-13.827-30-31.5-30S18,25.431,18,42	c0,6.653,2.315,10.234,6.224,16.395C24.73,59.192,25,60.119,25,61.063V62c0,3.866,3.134,7,7,7h3c1.105,0,2,0.895,2,2V73.721z"/><path fill="#4a5397" d="M59.939,43.231l4.105-0.662c2.985-0.481,5.768,1.607,6.104,4.577l0.32,2.835	c0.234,2.067-0.796,4.074-2.621,5.11l-3.016,1.713c-2.856,1.621-6.499,0.297-7.61-2.768l-1.409-3.886	C54.699,47.076,56.679,43.756,59.939,43.231z"/><path fill="#4a5397" d="M44.188,50.149l-1.409,3.886c-1.111,3.065-4.755,4.389-7.61,2.768l-3.016-1.713	c-1.825-1.036-2.854-3.044-2.621-5.11l0.32-2.835c0.336-2.97,3.119-5.058,6.104-4.577l4.105,0.662	C43.321,43.756,45.301,47.076,44.188,50.149z"/><path fill="#4a5397" d="M52.517,67.5h-6.034c-1.402,0-2.36-1.476-1.839-2.834l3.017-7.867c0.664-1.732,3.015-1.732,3.679,0	l3.017,7.867C54.877,66.024,53.919,67.5,52.517,67.5z"/><path fill="#1f212b" d="M53.5,76c-0.276,0-0.5-0.224-0.5-0.5v-2c0-0.276,0.224-0.5,0.5-0.5s0.5,0.224,0.5,0.5v2	C54,75.776,53.776,76,53.5,76z"/><path fill="#1f212b" d="M64.5,22.373c-0.094,0-0.189-0.026-0.274-0.082c-0.238-0.156-0.485-0.301-0.732-0.446l-0.249-0.146	c-0.237-0.141-0.315-0.447-0.174-0.685c0.141-0.239,0.448-0.316,0.685-0.175L64,20.982c0.261,0.153,0.522,0.308,0.774,0.473	c0.231,0.151,0.295,0.462,0.144,0.692C64.822,22.294,64.662,22.373,64.5,22.373z"/><path fill="#1f212b" d="M60.5,20.243c-0.066,0-0.133-0.013-0.198-0.041c-1.046-0.45-2.009-0.804-2.944-1.08	c-0.265-0.078-0.416-0.356-0.338-0.621c0.079-0.265,0.356-0.413,0.621-0.338c0.974,0.288,1.974,0.654,3.056,1.121	c0.254,0.109,0.371,0.403,0.261,0.657C60.878,20.13,60.693,20.243,60.5,20.243z"/><path fill="#1f212b" d="M34.5,22.373c-0.163,0-0.323-0.079-0.418-0.226c-0.151-0.231-0.087-0.541,0.144-0.692	C38.672,18.54,43.954,17,49.5,17c1.648,0,3.36,0.155,5.087,0.461c0.271,0.048,0.453,0.308,0.405,0.579s-0.307,0.456-0.58,0.405	C52.743,18.149,51.09,18,49.5,18c-5.351,0-10.443,1.483-14.726,4.291C34.689,22.347,34.595,22.373,34.5,22.373z"/><path fill="#1f212b" d="M53.397,89.001c-0.935,0-1.855-0.168-2.737-0.498l-1.16-0.435l-1.16,0.435	c-0.919,0.344-1.888,0.491-2.855,0.497c-0.97-0.015-1.92-0.209-2.824-0.577l-6.057-2.468C33.2,84.569,31,81.298,31,77.621V69	c0-0.553,0.448-1,1-1c0.552,0,1,0.447,1,1v8.621c0,2.859,1.711,5.404,4.358,6.482l6.057,2.468c0.672,0.273,1.379,0.418,2.1,0.429	c0.729,0.029,1.438-0.113,2.123-0.37l1.511-0.566c0.227-0.084,0.476-0.084,0.702,0l1.511,0.566c0.684,0.256,1.397,0.391,2.123,0.37	c0.721-0.011,1.427-0.155,2.1-0.429l6.056-2.468C64.289,83.025,66,80.48,66,77.621V69c0-0.553,0.448-1,1-1s1,0.447,1,1v8.621	c0,3.677-2.2,6.948-5.604,8.334l-6.056,2.468c-0.904,0.368-1.854,0.563-2.824,0.577C53.476,89,53.437,89.001,53.397,89.001z"/><path fill="#1f212b" d="M58,72.5c0-0.276-0.224-0.5-0.5-0.5S57,72.224,57,72.5v8c0,0.276,0.224,0.5,0.5,0.5	s0.5-0.224,0.5-0.5V72.5z"/><path fill="#1f212b" d="M41.5,72c-0.276,0-0.5,0.224-0.5,0.5v8c0,0.276,0.224,0.5,0.5,0.5s0.5-0.224,0.5-0.5v-8	C42,72.224,41.776,72,41.5,72z"/><path fill="#1f212b" d="M49.5,73c-0.276,0-0.5,0.224-0.5,0.5v8c0,0.276,0.224,0.5,0.5,0.5s0.5-0.224,0.5-0.5v-8	C50,73.224,49.776,73,49.5,73z"/><path fill="#1f212b" d="M45.5,73c-0.276,0-0.5,0.224-0.5,0.5v8c0,0.276,0.224,0.5,0.5,0.5s0.5-0.224,0.5-0.5v-8	C46,73.224,45.776,73,45.5,73z"/><path fill="#1f212b" d="M53,77.862V81.5c0,0.276,0.224,0.5,0.5,0.5s0.5-0.224,0.5-0.5v-3.735	C53.679,77.801,53.347,77.834,53,77.862z"/><path fill="#1f212b" d="M62.2,58c-0.682,0-1.367-0.12-2.024-0.362c-1.6-0.591-2.849-1.841-3.426-3.432l-1.409-3.886	c-0.577-1.596-0.414-3.35,0.447-4.813c0.874-1.484,2.357-2.493,4.07-2.77l4.104-0.661c1.591-0.257,3.172,0.137,4.451,1.107	c1.261,0.956,2.053,2.344,2.229,3.906l0.32,2.835c0.256,2.267-0.871,4.465-2.871,5.601l-3.016,1.713	C64.188,57.743,63.197,58,62.2,58z M64.91,42.999c-0.261,0-0.523,0.021-0.787,0.063l-4.104,0.663	c-1.418,0.228-2.646,1.062-3.368,2.289c-0.71,1.206-0.844,2.65-0.369,3.965l1.409,3.886c0.476,1.313,1.508,2.346,2.832,2.834	c1.341,0.496,2.821,0.374,4.062-0.33l3.015-1.713c1.652-0.938,2.583-2.751,2.371-4.619l-0.32-2.835	c-0.146-1.288-0.799-2.433-1.84-3.223C66.963,43.337,65.955,42.999,64.91,42.999z"/><path fill="#1f212b" d="M37.8,58c-0.997,0-1.988-0.257-2.877-0.762l-3.016-1.713c-2-1.136-3.127-3.334-2.871-5.602	l0.32-2.833c0.177-1.563,0.969-2.951,2.229-3.907c1.28-0.971,2.862-1.364,4.451-1.107l4.104,0.662	c1.713,0.275,3.197,1.284,4.07,2.769c0.861,1.464,1.024,3.218,0.447,4.813v0.001l-1.409,3.886c-0.577,1.591-1.826,2.841-3.426,3.432	C39.167,57.88,38.482,58,37.8,58z M35.089,42.999c-1.044,0-2.052,0.338-2.9,0.98c-1.041,0.79-1.694,1.935-1.84,3.224l-0.32,2.833	c-0.212,1.869,0.719,3.682,2.371,4.62l3.016,1.713c1.239,0.704,2.721,0.826,4.062,0.33c1.323-0.488,2.355-1.521,2.832-2.835	l1.409-3.886c0.476-1.313,0.341-2.759-0.369-3.964c-0.722-1.228-1.949-2.062-3.368-2.289l-4.104-0.663	C35.613,43.021,35.351,42.999,35.089,42.999z"/><path fill="#1f212b" d="M52.517,68h-6.034c-0.813,0-1.55-0.393-2.021-1.078c-0.49-0.713-0.596-1.623-0.285-2.435l3.017-7.867	C47.577,55.621,48.46,55,49.5,55s1.923,0.621,2.306,1.62l3.017,7.867c0.312,0.812,0.205,1.722-0.285,2.435	C54.067,67.607,53.331,68,52.517,68z M49.5,56c-0.482,0-1.096,0.257-1.373,0.978l-3.017,7.867c-0.193,0.505-0.128,1.069,0.175,1.511	C45.567,66.765,46.004,67,46.483,67h6.034c0.479,0,0.916-0.235,1.197-0.645c0.303-0.441,0.369-1.006,0.175-1.511l-3.017-7.867	C50.596,56.257,49.982,56,49.5,56z"/><path fill="#1f212b" d="M49.5,79c-7.235,0-10.726-1.599-12.381-2.939C36.408,75.482,36,74.63,36,73.721V71	c0-0.552-0.449-1-1-1h-3c-4.411,0-8-3.589-8-8v-0.937c0-0.756-0.214-1.494-0.62-2.134l-0.113-0.178C19.359,52.595,17,48.879,17,42	c0-17.383,14.276-31,32.5-31S82,24.617,82,42c0,6.879-2.359,10.595-6.267,16.752l-0.113,0.179C75.214,59.569,75,60.308,75,61.063V62	c0,4.411-3.589,8-8,8h-3c-0.551,0-1,0.448-1,1v2.804c0,0.864-0.371,1.687-1.019,2.255C60.451,77.401,57.044,79,49.5,79z M49.5,13	C32.397,13,19,25.738,19,42c0,6.297,2.115,9.63,5.956,15.681l0.113,0.178C25.678,58.819,26,59.928,26,61.063V62c0,3.309,2.691,6,6,6	h3c1.654,0,3,1.346,3,3v2.721c0,0.304,0.138,0.591,0.379,0.786C39.527,75.438,42.5,77,49.5,77c7.559,0,10.324-1.709,11.162-2.444	C60.876,74.367,61,74.093,61,73.804V71c0-1.654,1.346-3,3-3h3c3.309,0,6-2.691,6-6v-0.937c0-1.136,0.322-2.244,0.931-3.204	l0.114-0.179C77.885,51.63,80,48.297,80,42C80,25.738,66.603,13,49.5,13z"/></svg>